<mxfile host="Electron" agent="Mozilla/5.0 (Windows NT 10.0; Win64; x64) AppleWebKit/537.36 (KHTML, like Gecko) draw.io/27.0.9 Chrome/134.0.6998.205 Electron/35.4.0 Safari/537.36" version="27.0.9">
  <diagram name="Page-1" id="t2g9nPBRQ7T25NPvsI95">
    <mxGraphModel dx="2723" dy="922" grid="1" gridSize="10" guides="1" tooltips="1" connect="1" arrows="1" fold="1" page="1" pageScale="1" pageWidth="1169" pageHeight="827" math="0" shadow="0">
      <root>
        <mxCell id="0" />
        <mxCell id="1" parent="0" />
        <mxCell id="wkqXvRpw8WBGLsTu2kj4-1" value="Data Flow Diagram" style="text;html=1;align=center;verticalAlign=middle;whiteSpace=wrap;rounded=0;fontSize=21;fontStyle=5" parent="1" vertex="1">
          <mxGeometry x="-1120" y="40" width="220" height="40" as="geometry" />
        </mxCell>
        <mxCell id="aZa3ijhRNjmpXaoFA8mI-3" value="" style="rounded=0;whiteSpace=wrap;html=1;fillColor=none;dashed=1;fontColor=#333333;strokeColor=#999999;" parent="1" vertex="1">
          <mxGeometry x="-1120" y="180" width="120" height="500" as="geometry" />
        </mxCell>
        <mxCell id="aZa3ijhRNjmpXaoFA8mI-4" value="Sources" style="rounded=0;whiteSpace=wrap;html=1;fontSize=24;strokeColor=none;" parent="1" vertex="1">
          <mxGeometry x="-1110" y="160" width="100" height="40" as="geometry" />
        </mxCell>
        <mxCell id="aZa3ijhRNjmpXaoFA8mI-29" style="edgeStyle=orthogonalEdgeStyle;rounded=0;orthogonalLoop=1;jettySize=auto;html=1;entryX=0;entryY=0.5;entryDx=0;entryDy=0;" parent="1" source="aZa3ijhRNjmpXaoFA8mI-5" target="aZa3ijhRNjmpXaoFA8mI-23" edge="1">
          <mxGeometry relative="1" as="geometry" />
        </mxCell>
        <mxCell id="aZa3ijhRNjmpXaoFA8mI-30" style="edgeStyle=orthogonalEdgeStyle;rounded=0;orthogonalLoop=1;jettySize=auto;html=1;entryX=0;entryY=0.5;entryDx=0;entryDy=0;" parent="1" source="aZa3ijhRNjmpXaoFA8mI-5" target="aZa3ijhRNjmpXaoFA8mI-24" edge="1">
          <mxGeometry relative="1" as="geometry" />
        </mxCell>
        <mxCell id="aZa3ijhRNjmpXaoFA8mI-31" style="edgeStyle=orthogonalEdgeStyle;rounded=0;orthogonalLoop=1;jettySize=auto;html=1;entryX=0;entryY=0.5;entryDx=0;entryDy=0;" parent="1" source="aZa3ijhRNjmpXaoFA8mI-5" target="aZa3ijhRNjmpXaoFA8mI-25" edge="1">
          <mxGeometry relative="1" as="geometry" />
        </mxCell>
        <mxCell id="aZa3ijhRNjmpXaoFA8mI-5" value="&lt;b&gt;&lt;font style=&quot;font-size: 15px;&quot;&gt;CRM&lt;/font&gt;&lt;/b&gt;" style="image;aspect=fixed;html=1;points=[];align=center;fontSize=12;image=img/lib/azure2/general/Folder_Blank.svg;" parent="1" vertex="1">
          <mxGeometry x="-1090.81" y="320" width="61.61" height="50" as="geometry" />
        </mxCell>
        <mxCell id="aZa3ijhRNjmpXaoFA8mI-21" value="Bronze Layer" style="rounded=0;whiteSpace=wrap;html=1;fillColor=#ffe6cc;strokeColor=#d79b00;fontSize=16;fontStyle=1" parent="1" vertex="1">
          <mxGeometry x="-887" y="160" width="140" height="40" as="geometry" />
        </mxCell>
        <mxCell id="aZa3ijhRNjmpXaoFA8mI-22" value="" style="rounded=0;whiteSpace=wrap;html=1;fillColor=none;strokeColor=#d79b00;fontSize=16;fontStyle=1" parent="1" vertex="1">
          <mxGeometry x="-887" y="220" width="140" height="460" as="geometry" />
        </mxCell>
        <mxCell id="-YeCzzPsT2VVVUYpRd2U-23" style="edgeStyle=orthogonalEdgeStyle;rounded=0;orthogonalLoop=1;jettySize=auto;html=1;entryX=0;entryY=0.5;entryDx=0;entryDy=0;" parent="1" source="aZa3ijhRNjmpXaoFA8mI-23" target="-YeCzzPsT2VVVUYpRd2U-3" edge="1">
          <mxGeometry relative="1" as="geometry" />
        </mxCell>
        <mxCell id="aZa3ijhRNjmpXaoFA8mI-23" value="crm_cust_info" style="rounded=0;whiteSpace=wrap;html=1;fillColor=#ffe6cc;strokeColor=#d79b00;fontSize=12;fontStyle=0" parent="1" vertex="1">
          <mxGeometry x="-882" y="330" width="130" height="30" as="geometry" />
        </mxCell>
        <mxCell id="-YeCzzPsT2VVVUYpRd2U-18" style="edgeStyle=orthogonalEdgeStyle;rounded=0;orthogonalLoop=1;jettySize=auto;html=1;entryX=0;entryY=0.5;entryDx=0;entryDy=0;" parent="1" source="aZa3ijhRNjmpXaoFA8mI-24" target="-YeCzzPsT2VVVUYpRd2U-4" edge="1">
          <mxGeometry relative="1" as="geometry" />
        </mxCell>
        <mxCell id="aZa3ijhRNjmpXaoFA8mI-24" value="crm_prd_info" style="rounded=0;whiteSpace=wrap;html=1;fillColor=#ffe6cc;strokeColor=#d79b00;fontSize=12;fontStyle=0" parent="1" vertex="1">
          <mxGeometry x="-882" y="370" width="130" height="30" as="geometry" />
        </mxCell>
        <mxCell id="-YeCzzPsT2VVVUYpRd2U-19" style="edgeStyle=orthogonalEdgeStyle;rounded=0;orthogonalLoop=1;jettySize=auto;html=1;entryX=0;entryY=0.5;entryDx=0;entryDy=0;" parent="1" source="aZa3ijhRNjmpXaoFA8mI-25" target="-YeCzzPsT2VVVUYpRd2U-5" edge="1">
          <mxGeometry relative="1" as="geometry" />
        </mxCell>
        <mxCell id="aZa3ijhRNjmpXaoFA8mI-25" value="crm_sales_details" style="rounded=0;whiteSpace=wrap;html=1;fillColor=#ffe6cc;strokeColor=#d79b00;fontSize=12;fontStyle=0" parent="1" vertex="1">
          <mxGeometry x="-882" y="290" width="130" height="30" as="geometry" />
        </mxCell>
        <mxCell id="-YeCzzPsT2VVVUYpRd2U-20" style="edgeStyle=orthogonalEdgeStyle;rounded=0;orthogonalLoop=1;jettySize=auto;html=1;entryX=0;entryY=0.5;entryDx=0;entryDy=0;" parent="1" source="aZa3ijhRNjmpXaoFA8mI-26" target="-YeCzzPsT2VVVUYpRd2U-6" edge="1">
          <mxGeometry relative="1" as="geometry" />
        </mxCell>
        <mxCell id="aZa3ijhRNjmpXaoFA8mI-26" value="erp_cust_az12" style="rounded=0;whiteSpace=wrap;html=1;fillColor=#ffe6cc;strokeColor=#d79b00;fontSize=12;fontStyle=0" parent="1" vertex="1">
          <mxGeometry x="-882" y="490" width="130" height="30" as="geometry" />
        </mxCell>
        <mxCell id="-YeCzzPsT2VVVUYpRd2U-21" style="edgeStyle=orthogonalEdgeStyle;rounded=0;orthogonalLoop=1;jettySize=auto;html=1;entryX=0;entryY=0.5;entryDx=0;entryDy=0;" parent="1" source="aZa3ijhRNjmpXaoFA8mI-27" target="-YeCzzPsT2VVVUYpRd2U-7" edge="1">
          <mxGeometry relative="1" as="geometry" />
        </mxCell>
        <mxCell id="aZa3ijhRNjmpXaoFA8mI-27" value="erp_loc_a101" style="rounded=0;whiteSpace=wrap;html=1;fillColor=#ffe6cc;strokeColor=#d79b00;fontSize=12;fontStyle=0" parent="1" vertex="1">
          <mxGeometry x="-882" y="530" width="130" height="30" as="geometry" />
        </mxCell>
        <mxCell id="-YeCzzPsT2VVVUYpRd2U-22" style="edgeStyle=orthogonalEdgeStyle;rounded=0;orthogonalLoop=1;jettySize=auto;html=1;entryX=0;entryY=0.5;entryDx=0;entryDy=0;" parent="1" source="aZa3ijhRNjmpXaoFA8mI-28" target="-YeCzzPsT2VVVUYpRd2U-8" edge="1">
          <mxGeometry relative="1" as="geometry" />
        </mxCell>
        <mxCell id="aZa3ijhRNjmpXaoFA8mI-28" value="erp_px_cat_g1v2" style="rounded=0;whiteSpace=wrap;html=1;fillColor=#ffe6cc;strokeColor=#d79b00;fontSize=12;fontStyle=0" parent="1" vertex="1">
          <mxGeometry x="-882" y="570" width="130" height="30" as="geometry" />
        </mxCell>
        <mxCell id="aZa3ijhRNjmpXaoFA8mI-39" style="edgeStyle=orthogonalEdgeStyle;rounded=0;orthogonalLoop=1;jettySize=auto;html=1;entryX=0;entryY=0.5;entryDx=0;entryDy=0;" parent="1" source="aZa3ijhRNjmpXaoFA8mI-7" target="aZa3ijhRNjmpXaoFA8mI-26" edge="1">
          <mxGeometry relative="1" as="geometry" />
        </mxCell>
        <mxCell id="aZa3ijhRNjmpXaoFA8mI-40" style="edgeStyle=orthogonalEdgeStyle;rounded=0;orthogonalLoop=1;jettySize=auto;html=1;entryX=0;entryY=0.5;entryDx=0;entryDy=0;" parent="1" source="aZa3ijhRNjmpXaoFA8mI-7" target="aZa3ijhRNjmpXaoFA8mI-27" edge="1">
          <mxGeometry relative="1" as="geometry" />
        </mxCell>
        <mxCell id="aZa3ijhRNjmpXaoFA8mI-41" style="edgeStyle=orthogonalEdgeStyle;rounded=0;orthogonalLoop=1;jettySize=auto;html=1;entryX=0;entryY=0.5;entryDx=0;entryDy=0;" parent="1" source="aZa3ijhRNjmpXaoFA8mI-7" target="aZa3ijhRNjmpXaoFA8mI-28" edge="1">
          <mxGeometry relative="1" as="geometry" />
        </mxCell>
        <mxCell id="aZa3ijhRNjmpXaoFA8mI-7" value="&lt;b&gt;&lt;font style=&quot;font-size: 15px;&quot;&gt;ERP&lt;/font&gt;&lt;/b&gt;" style="image;aspect=fixed;html=1;points=[];align=center;fontSize=12;image=img/lib/azure2/general/Folder_Blank.svg;" parent="1" vertex="1">
          <mxGeometry x="-1090.82" y="520" width="61.61" height="50" as="geometry" />
        </mxCell>
        <mxCell id="-YeCzzPsT2VVVUYpRd2U-1" value="Silver Layer" style="rounded=0;whiteSpace=wrap;html=1;fillColor=#f5f5f5;strokeColor=#666666;fontSize=16;fontStyle=1;fontColor=#333333;" parent="1" vertex="1">
          <mxGeometry x="-643" y="160" width="140" height="40" as="geometry" />
        </mxCell>
        <mxCell id="feMU8Ohwre8aJyZwpjGb-1" value="Gold Layer" style="rounded=0;whiteSpace=wrap;html=1;fillColor=#fff2cc;strokeColor=#d6b656;fontSize=16;fontStyle=1;" vertex="1" parent="1">
          <mxGeometry x="-400" y="160" width="140" height="40" as="geometry" />
        </mxCell>
        <mxCell id="-YeCzzPsT2VVVUYpRd2U-2" value="" style="rounded=0;whiteSpace=wrap;html=1;fillColor=none;strokeColor=#666666;fontSize=16;fontStyle=1;fontColor=#333333;" parent="1" vertex="1">
          <mxGeometry x="-643" y="220" width="140" height="460" as="geometry" />
        </mxCell>
        <mxCell id="feMU8Ohwre8aJyZwpjGb-2" value="" style="rounded=0;whiteSpace=wrap;html=1;fillColor=none;strokeColor=#d6b656;fontSize=16;fontStyle=1;" vertex="1" parent="1">
          <mxGeometry x="-400" y="220" width="140" height="460" as="geometry" />
        </mxCell>
        <mxCell id="-YeCzzPsT2VVVUYpRd2U-3" value="crm_cust_info" style="rounded=0;whiteSpace=wrap;html=1;fillColor=#f5f5f5;strokeColor=#666666;fontSize=12;fontStyle=0;fontColor=#333333;" parent="1" vertex="1">
          <mxGeometry x="-638" y="330" width="130" height="30" as="geometry" />
        </mxCell>
        <mxCell id="feMU8Ohwre8aJyZwpjGb-3" value="fact_sales" style="rounded=0;whiteSpace=wrap;html=1;fillColor=#fff2cc;strokeColor=#d6b656;fontSize=12;fontStyle=0;" vertex="1" parent="1">
          <mxGeometry x="-395" y="330" width="130" height="30" as="geometry" />
        </mxCell>
        <mxCell id="-YeCzzPsT2VVVUYpRd2U-4" value="crm_prd_info" style="rounded=0;whiteSpace=wrap;html=1;fillColor=#f5f5f5;strokeColor=#666666;fontSize=12;fontStyle=0;fontColor=#333333;" parent="1" vertex="1">
          <mxGeometry x="-638" y="370" width="130" height="30" as="geometry" />
        </mxCell>
        <mxCell id="feMU8Ohwre8aJyZwpjGb-4" value="dim_customers" style="rounded=0;whiteSpace=wrap;html=1;fillColor=#fff2cc;strokeColor=#d6b656;fontSize=12;fontStyle=0;" vertex="1" parent="1">
          <mxGeometry x="-395" y="435" width="130" height="30" as="geometry" />
        </mxCell>
        <mxCell id="-YeCzzPsT2VVVUYpRd2U-5" value="crm_sales_details" style="rounded=0;whiteSpace=wrap;html=1;fillColor=#f5f5f5;strokeColor=#666666;fontSize=12;fontStyle=0;fontColor=#333333;" parent="1" vertex="1">
          <mxGeometry x="-638" y="290" width="130" height="30" as="geometry" />
        </mxCell>
        <mxCell id="feMU8Ohwre8aJyZwpjGb-5" value="dim_products" style="rounded=0;whiteSpace=wrap;html=1;fillColor=#fff2cc;strokeColor=#d6b656;fontSize=12;fontStyle=0;" vertex="1" parent="1">
          <mxGeometry x="-395" y="540" width="130" height="30" as="geometry" />
        </mxCell>
        <mxCell id="-YeCzzPsT2VVVUYpRd2U-6" value="erp_cust_az12" style="rounded=0;whiteSpace=wrap;html=1;fillColor=#f5f5f5;strokeColor=#666666;fontSize=12;fontStyle=0;fontColor=#333333;" parent="1" vertex="1">
          <mxGeometry x="-638" y="490" width="130" height="30" as="geometry" />
        </mxCell>
        <mxCell id="-YeCzzPsT2VVVUYpRd2U-7" value="erp_loc_a101" style="rounded=0;whiteSpace=wrap;html=1;fillColor=#f5f5f5;strokeColor=#666666;fontSize=12;fontStyle=0;fontColor=#333333;" parent="1" vertex="1">
          <mxGeometry x="-638" y="530" width="130" height="30" as="geometry" />
        </mxCell>
        <mxCell id="-YeCzzPsT2VVVUYpRd2U-8" value="erp_px_cat_g1v2" style="rounded=0;whiteSpace=wrap;html=1;fillColor=#f5f5f5;strokeColor=#666666;fontSize=12;fontStyle=0;fontColor=#333333;" parent="1" vertex="1">
          <mxGeometry x="-638" y="570" width="130" height="30" as="geometry" />
        </mxCell>
        <mxCell id="feMU8Ohwre8aJyZwpjGb-9" value="" style="endArrow=classic;html=1;rounded=0;entryX=0;entryY=0.5;entryDx=0;entryDy=0;exitX=1;exitY=0.5;exitDx=0;exitDy=0;flowAnimation=0;curved=0;jumpStyle=arc;" edge="1" parent="1" source="-YeCzzPsT2VVVUYpRd2U-3" target="feMU8Ohwre8aJyZwpjGb-4">
          <mxGeometry width="50" height="50" relative="1" as="geometry">
            <mxPoint x="-470" y="430" as="sourcePoint" />
            <mxPoint x="-420" y="380" as="targetPoint" />
          </mxGeometry>
        </mxCell>
        <mxCell id="feMU8Ohwre8aJyZwpjGb-10" value="" style="endArrow=classic;html=1;rounded=0;exitX=1;exitY=0.5;exitDx=0;exitDy=0;entryX=0;entryY=0.5;entryDx=0;entryDy=0;flowAnimation=0;curved=0;jumpStyle=arc;" edge="1" parent="1" source="-YeCzzPsT2VVVUYpRd2U-6" target="feMU8Ohwre8aJyZwpjGb-4">
          <mxGeometry width="50" height="50" relative="1" as="geometry">
            <mxPoint x="-490" y="520" as="sourcePoint" />
            <mxPoint x="-440" y="470" as="targetPoint" />
          </mxGeometry>
        </mxCell>
        <mxCell id="feMU8Ohwre8aJyZwpjGb-11" value="" style="endArrow=classic;html=1;rounded=0;exitX=1;exitY=0.5;exitDx=0;exitDy=0;entryX=0;entryY=0.5;entryDx=0;entryDy=0;flowAnimation=0;curved=0;jumpStyle=arc;" edge="1" parent="1" source="-YeCzzPsT2VVVUYpRd2U-7" target="feMU8Ohwre8aJyZwpjGb-4">
          <mxGeometry width="50" height="50" relative="1" as="geometry">
            <mxPoint x="-470" y="540" as="sourcePoint" />
            <mxPoint x="-420" y="490" as="targetPoint" />
          </mxGeometry>
        </mxCell>
        <mxCell id="feMU8Ohwre8aJyZwpjGb-12" value="" style="endArrow=classic;html=1;rounded=0;exitX=1;exitY=0.5;exitDx=0;exitDy=0;entryX=0;entryY=0.5;entryDx=0;entryDy=0;flowAnimation=0;curved=0;jumpStyle=arc;" edge="1" parent="1" source="-YeCzzPsT2VVVUYpRd2U-4" target="feMU8Ohwre8aJyZwpjGb-5">
          <mxGeometry width="50" height="50" relative="1" as="geometry">
            <mxPoint x="-480" y="470" as="sourcePoint" />
            <mxPoint x="-430" y="420" as="targetPoint" />
          </mxGeometry>
        </mxCell>
        <mxCell id="feMU8Ohwre8aJyZwpjGb-13" value="" style="endArrow=classic;html=1;rounded=0;exitX=1;exitY=0.5;exitDx=0;exitDy=0;entryX=0;entryY=0.5;entryDx=0;entryDy=0;flowAnimation=0;curved=0;jumpStyle=arc;" edge="1" parent="1" source="-YeCzzPsT2VVVUYpRd2U-8" target="feMU8Ohwre8aJyZwpjGb-5">
          <mxGeometry width="50" height="50" relative="1" as="geometry">
            <mxPoint x="-480" y="590" as="sourcePoint" />
            <mxPoint x="-430" y="540" as="targetPoint" />
          </mxGeometry>
        </mxCell>
        <mxCell id="feMU8Ohwre8aJyZwpjGb-15" value="" style="endArrow=classic;html=1;rounded=0;exitX=1;exitY=0.5;exitDx=0;exitDy=0;entryX=0;entryY=0.5;entryDx=0;entryDy=0;flowAnimation=0;curved=0;jumpStyle=arc;" edge="1" parent="1" source="-YeCzzPsT2VVVUYpRd2U-5" target="feMU8Ohwre8aJyZwpjGb-3">
          <mxGeometry width="50" height="50" relative="1" as="geometry">
            <mxPoint x="-460" y="300" as="sourcePoint" />
            <mxPoint x="-410" y="250" as="targetPoint" />
          </mxGeometry>
        </mxCell>
      </root>
    </mxGraphModel>
  </diagram>
</mxfile>
